<svg width="240" height="64" viewBox="0 0 240 64" xmlns="http://www.w3.org/2000/svg">
  <rect x="0" y="0" width="64" height="64" rx="16" fill="#7c3aed"/>
  <path d="M18 14 L18 50 L34 50 Q46 50 46 41 Q46 34 38 32 Q46 30 46 23 Q46 14 34 14 Z
           M25 20 L32 20 Q38 20 38 25 Q38 30 32 30 L25 30 Z
           M25 35 L33 35 Q40 35 40 42 Q40 49 33 49 L25 49 Z" fill="#ffffff"/>
  <circle cx="52" cy="12" r="7" fill="#f59e0b"/>
  <text x="78" y="29" font-family="system-ui,-apple-system,sans-serif" font-size="26" font-weight="900" fill="#1e1048" letter-spacing="-0.5">book</text>
  <text x="144" y="29" font-family="system-ui,-apple-system,sans-serif" font-size="26" font-weight="900" fill="#7c3aed" letter-spacing="-0.5">zy</text>
  <text x="79" y="50" font-family="system-ui,-apple-system,sans-serif" font-size="10" font-weight="500" fill="#7c3aed" letter-spacing="3">RESERVAS ONLINE</text>
</svg>